<svg xmlns="http://www.w3.org/2000/svg" xmlns:xlink="http://www.w3.org/1999/xlink" width="1179" zoomAndPan="magnify" viewBox="0 0 884.25 417.749988" height="557" preserveAspectRatio="xMidYMid meet" version="1.0"><defs><clipPath id="25380e077e"><path d="M 0.75 38 L 882.75 38 L 882.75 379 L 0.75 379 Z M 0.75 38 " clip-rule="nonzero"/></clipPath><clipPath id="6c494f224c"><path d="M 0.75 0.660156 L 882.75 0.660156 L 882.75 340.929688 L 0.75 340.929688 Z M 0.75 0.660156 " clip-rule="nonzero"/></clipPath><clipPath id="9f6639e6af"><path d="M 867.746094 181.90625 L 883.476562 161.554688 L 858.507812 155.359375 C 800.070312 140.851562 758.773438 115.25 736.585938 101.503906 L 732.652344 99.054688 C 702.023438 80.167969 622.917969 34.125 550.140625 14.179688 C 516.375 4.921875 480.609375 0.394531 443.855469 0.75 C 413.097656 1.027344 365.125 5.089844 311.175781 22.714844 C 211.089844 55.511719 145.175781 119.648438 81.429688 181.664062 C 56.628906 205.765625 32.917969 231.515625 10.972656 258.210938 L 0.75 270.65625 L 56.851562 320.765625 L 67.664062 305.089844 C 93.507812 267.632812 164.46875 191.21875 244.910156 145.65625 C 274.5 128.886719 324.011719 100.796875 390.296875 95.882812 C 396.105469 95.417969 401.984375 95.160156 407.828125 95.121094 C 445.972656 94.695312 479.214844 102.132812 506.636719 110.925781 C 481.796875 113.433594 457.214844 117.957031 433.023438 124.453125 C 371.394531 141 314.515625 169.738281 263.980469 209.828125 L 246.949219 223.332031 L 264.332031 236.394531 C 327.257812 283.699219 428.421875 340.207031 552.976562 340.765625 C 604.070312 341.023438 643.378906 331.65625 657.925781 327.613281 C 760.050781 299.46875 828.378906 232.851562 867.746094 181.90625 " clip-rule="nonzero"/></clipPath><clipPath id="606daf06d3"><path d="M 0.75 0.660156 L 882.75 0.660156 L 882.75 340.929688 L 0.75 340.929688 Z M 0.75 0.660156 " clip-rule="nonzero"/></clipPath><clipPath id="7aa6840427"><path d="M 867.746094 181.90625 L 883.476562 161.554688 L 858.507812 155.359375 C 800.070312 140.851562 758.773438 115.25 736.585938 101.503906 L 732.652344 99.054688 C 702.023438 80.167969 622.917969 34.125 550.140625 14.179688 C 516.375 4.921875 480.609375 0.394531 443.855469 0.75 C 413.097656 1.027344 365.125 5.089844 311.175781 22.714844 C 211.089844 55.511719 145.175781 119.648438 81.429688 181.664062 C 56.628906 205.765625 32.917969 231.515625 10.972656 258.210938 L 0.75 270.65625 L 56.851562 320.765625 L 67.664062 305.089844 C 93.507812 267.632812 164.46875 191.21875 244.910156 145.65625 C 274.5 128.886719 324.011719 100.796875 390.296875 95.882812 C 396.105469 95.417969 401.984375 95.160156 407.828125 95.121094 C 445.972656 94.695312 479.214844 102.132812 506.636719 110.925781 C 481.796875 113.433594 457.214844 117.957031 433.023438 124.453125 C 371.394531 141 314.515625 169.738281 263.980469 209.828125 L 246.949219 223.332031 L 264.332031 236.394531 C 327.257812 283.699219 428.421875 340.207031 552.976562 340.765625 C 604.070312 341.023438 643.378906 331.65625 657.925781 327.613281 C 760.050781 299.46875 828.378906 232.851562 867.746094 181.90625 " clip-rule="nonzero"/></clipPath><clipPath id="57d0540ad6"><rect x="0" width="883" y="0" height="341"/></clipPath><clipPath id="22310b79e3"><rect x="0" width="883" y="0" height="341"/></clipPath></defs><g clip-path="url(#25380e077e)"><g transform="matrix(1, 0, 0, 1, 0, 38)"><g clip-path="url(#22310b79e3)"><g clip-path="url(#6c494f224c)"><g clip-path="url(#9f6639e6af)"><g transform="matrix(1, 0, 0, 1, 0, 0.000000000000014211)"><g clip-path="url(#57d0540ad6)"><g clip-path="url(#606daf06d3)"><g clip-path="url(#7aa6840427)"><path fill="#cdff98" d="M 0.75 0.730469 L 884.054688 0.730469 L 884.054688 340.769531 L 0.75 340.769531 Z M 0.75 0.730469 " fill-opacity="1" fill-rule="nonzero"/></g></g></g></g></g></g></g></g></g></svg>